<svg width="24" height="24" viewBox="0 0 24 24" fill="none" xmlns="http://www.w3.org/2000/svg">
<g id="times">
<g id="times_2">
<path id="Vector" d="M12.353 12L12.7066 11.6465L17.1266 7.22647L17.1328 7.22023L17.1393 7.21421C17.1638 7.19132 17.1835 7.16372 17.1972 7.13306C17.2109 7.1024 17.2182 7.06929 17.2188 7.03572C17.2194 7.00215 17.2132 6.96881 17.2006 6.93768C17.1881 6.90655 17.1693 6.87828 17.1456 6.85453C17.1219 6.8308 17.0936 6.81208 17.0625 6.79951C17.0313 6.78693 16.998 6.78076 16.9644 6.78135C16.9309 6.78194 16.8977 6.78929 16.8671 6.80295C16.8364 6.81662 16.8088 6.83632 16.7859 6.86088L16.7799 6.86733L16.7737 6.87357L12.3537 11.2936L12.0001 11.6471L11.6466 11.2936L7.23448 6.88148C7.18769 6.84009 7.12703 6.81766 7.06442 6.81877C6.99965 6.81991 6.93786 6.84615 6.89205 6.89195C6.84625 6.93776 6.82001 6.99955 6.81887 7.06432C6.81776 7.12693 6.84019 7.18759 6.88158 7.23438L11.2937 11.6465L11.6472 12L11.2937 12.3536L6.87389 16.7734L12.353 12ZM12.353 12L12.7066 12.3536M12.353 12L12.7066 12.3536M12.7066 12.3536L17.1263 16.7734L12.7066 12.3536ZM12.0001 12.3529L12.3537 12.7065L16.7735 17.1262L12.0001 12.3529ZM12.0001 12.3529L11.6466 12.7065M12.0001 12.3529L11.6466 12.7065M11.6466 12.7065L7.22679 17.1262L11.6466 12.7065ZM6.80078 16.95C6.80078 16.8839 6.827 16.8204 6.87367 16.7736L7.22657 17.1265C7.17971 17.1731 7.11627 17.1994 7.05012 17.1994C6.98397 17.1994 6.92052 17.1731 6.87366 17.1264C6.82699 17.0796 6.80078 17.0162 6.80078 16.95ZM16.9501 17.1994C16.884 17.1994 16.8205 17.1731 16.7737 17.1265L17.1266 16.7736C17.1732 16.8204 17.1995 16.8839 17.1995 16.95C17.1995 17.0162 17.1732 17.0796 17.1266 17.1265C17.0797 17.1731 17.0163 17.1994 16.9501 17.1994Z" fill="#411941" stroke="#411941"/>
</g>
</g>
</svg>
